<svg xmlns="http://www.w3.org/2000/svg" viewBox="0 0 100 100">
  <!-- Aperture/Camera lens icon for Tecnovisuales -->
  <circle cx="50" cy="50" r="48" fill="#0A0A0A"/>
  <g fill="#C8A455">
    <polygon points="50,10 65,30 50,38"/>
    <polygon points="50,10 35,30 50,38" opacity="0.85"/>
    <polygon points="85,30 70,30 62,50"/>
    <polygon points="85,30 80,55 62,50" opacity="0.85"/>
    <polygon points="80,75 80,55 62,62"/>
    <polygon points="80,75 60,75 62,62" opacity="0.85"/>
    <polygon points="50,90 60,75 50,62"/>
    <polygon points="50,90 40,75 50,62" opacity="0.85"/>
    <polygon points="20,75 40,75 38,62"/>
    <polygon points="20,75 20,55 38,62" opacity="0.85"/>
    <polygon points="15,30 20,55 38,50"/>
    <polygon points="15,30 30,30 38,50" opacity="0.85"/>
  </g>
  <circle cx="50" cy="50" r="10" fill="#0A0A0A"/>
  <circle cx="50" cy="50" r="6" fill="none" stroke="#C8A455" stroke-width="1.5"/>
</svg>
